<svg width="2027" height="1317" viewBox="0 0 2027 1317" fill="none" xmlns="http://www.w3.org/2000/svg">
<path fill-rule="evenodd" clip-rule="evenodd" d="M887.288 2.88264C811.491 16.243 740.859 51.6024 689.615 101.847C608.46 181.416 567.322 285.273 573.087 396.042C576.996 471.102 596.694 526.703 653.994 624.411C696.737 697.292 700.726 710.23 698.158 767.596C696.669 800.823 686.255 871.999 677.111 911.42C674.893 920.986 673.078 929.321 673.078 929.945C673.078 930.569 684.103 931.079 697.58 931.079C718.267 931.079 722.459 930.375 724.501 926.549C725.832 924.059 729.948 907.457 733.645 889.66C765.932 734.329 761.422 701.152 692.494 586.779C667.269 544.925 653.279 517.795 645.106 494.88C608.483 392.216 621.375 281.683 680.427 191.999C695.597 168.96 733.313 129.771 758.831 110.532C785.64 90.3193 831.241 68.4136 863.352 60.3212C905.295 49.7515 928.708 47.4035 974.568 49.1638C1068.57 52.7699 1138.7 81.8852 1198.88 142.285C1252.6 196.208 1276.92 258.208 1280.33 349.911C1282.71 414.215 1288.13 430.079 1328.07 489.754C1346.42 517.174 1352.19 527.86 1352.38 534.792C1352.63 543.762 1352.42 543.938 1337 548.153C1298.45 558.684 1286.76 574.918 1294.28 607.461C1300.67 635.118 1300.58 636.55 1292 647.35C1283.41 658.158 1282.45 665.448 1287.69 679.968C1290.69 688.288 1290.38 689.966 1283.88 700.678C1277.5 711.196 1276.71 715.255 1275.74 742.279C1274.44 778.575 1270.13 789.212 1252.74 799.054L1241.31 805.526L1171.21 804.75C1104.44 804.012 1100.39 804.242 1085.99 809.629C1067.96 816.376 1051.72 831.921 1042.19 851.559C1035.94 864.456 1027.77 904.661 1027.75 922.666L1027.74 931.079H1050.76C1077.33 931.079 1075.59 932.757 1081.14 901.778C1085.64 876.682 1092.59 862.662 1103.49 856.708C1111.01 852.592 1118.63 852.209 1177.89 852.954C1238.54 853.72 1245.27 853.358 1260.84 848.486C1291.61 838.856 1309.76 822.661 1318.92 796.639C1321.14 790.325 1323.96 770.876 1325.17 753.413C1327.09 725.915 1328.32 720.07 1334.36 709.762C1340.09 699.984 1341.22 695.169 1340.72 682.808C1340.23 670.863 1341.27 666.131 1345.72 659.874C1352.39 650.506 1353.02 636.213 1347.45 620.433C1340.04 599.438 1343.84 591.566 1362.98 588.208C1389.65 583.536 1406.98 564.539 1406.8 540.193C1406.67 523.112 1399.29 507.502 1372.1 466.844C1362.01 451.764 1349.59 430.63 1344.48 419.877C1335.25 400.446 1335.18 400.039 1333.1 353.113C1330.01 283.697 1319.56 238.397 1295.61 190.705C1279.67 158.975 1255.88 126.978 1228.74 100.778C1178.27 52.0476 1121.79 23.4656 1040.68 5.60338C1013.8 -0.314441 915.345 -2.06181 887.288 2.88264ZM920.305 116.517C901.122 121.503 892.245 126.97 871.628 146.5L852.997 164.15L830.591 165.302C812.004 166.257 805.304 167.872 791.25 174.789C763.879 188.266 744.846 214.345 738.007 247.752C735.446 260.253 733.888 262.723 725.834 267.059C713.227 273.849 694.249 295.4 687.07 311.08C667.087 354.731 677.018 410.984 709.929 440.573C726.66 455.614 742.672 463.833 762.323 467.468C783.926 471.459 891.145 471.229 895.194 467.18C897.112 465.262 898.3 455.831 898.3 442.515V420.956L835.059 421.29L771.821 421.627L758.113 414.246C738.245 403.542 729.549 389.469 728.011 365.519C727.064 350.76 727.872 344.519 731.897 335.458C741.939 312.856 756.203 300.881 777.384 297.264L788.099 295.434L788.19 271.991C788.27 250.548 788.943 247.46 796.075 235.805C812.058 209.685 840.509 204.746 874.349 222.222C881.424 225.875 882.413 224.977 889.338 208.59C896.071 192.664 911.309 174.046 922.376 168.224C935.951 161.085 962.439 162.47 977.146 171.087C989.686 178.434 1001.37 192.351 1007.12 206.778C1008.98 211.464 1010.83 215.722 1011.22 216.24C1011.62 216.76 1017.01 214.731 1023.21 211.728C1056.16 195.779 1096.16 201.948 1110.13 225.135C1120.25 241.917 1123.05 268.123 1116.91 288.429C1115.47 293.197 1116.15 294.254 1120.66 294.254C1123.69 294.254 1131.37 296.703 1137.74 299.693C1153.87 307.278 1161.03 319.525 1161.03 339.556C1161.03 357.918 1156.01 366.58 1140.35 375.247C1130.53 380.681 1126.73 380.999 1066.57 381.439C998.133 381.936 987.524 382.827 975.044 389.102C963.736 394.787 947.965 410.265 942.299 421.233C939.689 426.289 934.579 442.468 930.947 457.185C923.789 486.187 913.833 509.708 900.495 529.128C889.555 545.054 860.926 573.007 842.691 585.568C834.831 590.978 828.404 597.036 828.404 599.029C828.404 608.242 847.387 633.376 854.346 633.376C856.983 633.376 867.08 628.005 876.78 621.442C925.64 588.382 960.762 538.738 974.925 482.715C984.457 445.008 987.812 437.744 997.913 432.95C1005.02 429.579 1017.53 428.867 1069.73 428.867C1137.97 428.867 1149.7 427.179 1171.95 414.163C1210.5 391.618 1224.35 337.485 1202.05 296.519C1195.62 284.699 1172.51 260.6 1167.61 260.6C1166.53 260.6 1165.05 253.09 1164.31 243.913C1161.54 209.393 1138.37 176.327 1108.56 164.367C1096.08 159.358 1088.86 158.403 1062.6 158.291L1031.45 158.157L1020.17 145.915C1003.62 127.967 977.229 115.611 952.48 114.229C941.39 113.607 927.768 114.578 920.305 116.517ZM304.625 1065.8C300.85 1068.77 297.182 1074.92 296.263 1079.82C291.406 1105.71 324.387 1122.09 343.301 1103.17C352.105 1094.37 352.017 1075.76 343.127 1066.87C334.724 1058.47 314.661 1057.91 304.625 1065.8ZM3.23595 1067.46C0.709321 1068.44 0 1095.68 0 1191.56V1314.4L23.946 1313.66L47.8921 1312.92L47.2682 1230.31C46.9239 1184.89 47.1103 1148.19 47.6824 1148.77C48.2519 1149.35 55.6635 1167.88 64.1495 1189.95C72.6355 1212.02 86.9565 1249.05 95.9731 1272.24L112.37 1314.41L131.905 1313.66L151.443 1312.92L161.342 1288.32C166.789 1274.8 180.566 1239.27 191.962 1209.37C203.358 1179.47 213.754 1153.9 215.069 1152.54C216.527 1151.04 217.456 1181.99 217.456 1232.15V1314.21H240.755H264.054V1191.25V1068.28L255.64 1067.86C251.014 1067.63 236.882 1067.34 224.236 1067.21L201.245 1066.99L197.768 1074.75C193.189 1084.98 170.716 1143.93 150.138 1199.69C141.067 1224.27 132.78 1243.49 131.721 1242.41C130.663 1241.32 122.65 1221.21 113.916 1197.72C98.9709 1157.52 90.806 1136.2 72.0141 1088.34L64.1365 1068.28L43.0718 1068.11C31.4845 1068.01 18.5096 1067.54 14.2382 1067.07C9.96673 1066.59 5.01702 1066.77 3.23595 1067.46ZM713.851 1067.74L691.199 1068.48V1110.84V1153.19L682.63 1144.62C666.471 1128.46 633.77 1126.32 606.536 1139.62C590.763 1147.33 581.614 1157.34 572.349 1177.01C566.253 1189.96 565.644 1194.18 565.644 1223.6C565.644 1253.11 566.242 1257.24 572.427 1270.42C585.531 1298.37 607.864 1314.11 637.405 1316.23C652.552 1317.32 656.652 1316.58 669.13 1310.47C677.013 1306.61 684.893 1300.93 686.643 1297.83C689.628 1292.55 689.905 1292.84 691.158 1302.56L692.494 1312.92H715.244H737.996L737.849 1190.12C737.766 1122.58 737.429 1067.25 737.101 1067.16C736.772 1067.06 726.311 1067.32 713.851 1067.74ZM851.218 1069.36C798.765 1084.41 766.224 1131.53 766.289 1192.37C766.369 1269.79 815.688 1319.62 888.965 1316.33C909.636 1315.4 914.972 1314.09 932.296 1305.73C956.842 1293.88 975.958 1274.24 982.593 1254.05C985.057 1246.56 987.61 1238.98 988.267 1237.2C989.168 1234.75 983.408 1233.96 964.642 1233.96H939.826L934.67 1244.06C928.299 1256.56 914.136 1268.52 901.091 1272.43C869.591 1281.86 838.852 1266.63 823.464 1233.96C817.572 1221.45 816.762 1216.43 816.783 1192.54C816.803 1168.07 817.551 1163.74 824.282 1149.11C832.175 1131.96 844.402 1119.17 858.55 1113.26C868.799 1108.98 893.775 1108.92 905.45 1113.16C916.994 1117.34 933.634 1134.05 937.289 1145.13L940.303 1154.26L962.662 1153.33C974.961 1152.83 985.782 1151.37 986.711 1150.08C989.691 1145.97 981.071 1121.76 971.686 1107.9C960.987 1092.1 950.35 1083.46 929.974 1074.04C917.537 1068.29 910.925 1067.07 889.239 1066.53C873.347 1066.13 858.666 1067.22 851.218 1069.36ZM1648.4 1068.36C1610.14 1077.93 1578.23 1110.93 1567.14 1152.41C1562.64 1169.23 1562.69 1216.02 1567.22 1233.05C1575.71 1264.94 1599.25 1292.61 1630.2 1307.1C1664.05 1322.93 1709.69 1319.51 1741.85 1298.73C1775.76 1276.81 1793.69 1240.64 1793.92 1193.66C1794.05 1167.21 1789.62 1147.02 1779.4 1127.5C1767.12 1104.06 1750.28 1087.73 1726.73 1076.43C1709.17 1068 1705.03 1067.06 1682.73 1066.53C1669.18 1066.2 1653.74 1067.02 1648.4 1068.36ZM1822.49 1191.34V1314.4L1846.43 1313.66L1870.38 1312.92V1230.52C1870.38 1174.46 1871.21 1149.49 1872.97 1152.4C1885.84 1173.69 1972.25 1304.08 1977.2 1309.68C1980.44 1313.35 1985.55 1314.21 2004.1 1314.21H2027V1191.25V1068.28H2002.41H1977.81V1151.77V1235.25L1949.15 1191.24C1933.39 1167.04 1908.63 1129.48 1894.14 1107.78L1867.79 1068.32L1845.14 1068.3L1822.49 1068.28V1191.34ZM1665.15 1109.87C1639.2 1114.97 1620.85 1136.23 1613.84 1169.32C1603.88 1216.3 1620.95 1256.82 1656.37 1270.27C1672.47 1276.39 1680.15 1276.62 1697.33 1271.52C1713.64 1266.68 1727.81 1253.25 1736.77 1234.13C1742.8 1221.27 1743.52 1216.66 1743.43 1191.25C1743.34 1165.1 1742.72 1161.54 1735.8 1147.71C1721.04 1118.15 1694.72 1104.06 1665.15 1109.87ZM454.328 1134.3C448.632 1136.31 440.188 1142.07 435.559 1147.09L427.146 1156.22V1145.9V1135.59H404.15C382.306 1135.59 381.104 1135.88 380.204 1141.41C379.681 1144.62 379.253 1184.52 379.253 1230.08V1312.92L403.024 1313.66L426.794 1314.4L427.617 1255.41C428.321 1204.93 429.1 1195.22 433.014 1188.05C438.808 1177.45 449.616 1171.83 464.204 1171.83C478.483 1171.83 488.116 1178.88 491.761 1192.01C493.226 1197.29 494.43 1226.94 494.438 1257.91L494.453 1314.21H517.752H541.051V1252.35C541.051 1179.8 538.149 1164.6 520.895 1146.82C505.603 1131.07 478.103 1125.89 454.328 1134.3ZM1061.77 1134.32C1040.64 1140.25 1026.17 1152.21 1018.8 1169.84C1016.6 1175.12 1014.79 1181.87 1014.79 1184.85C1014.79 1190 1015.82 1190.21 1035.48 1189.02C1055.18 1187.84 1056.59 1187.33 1064.91 1178.51C1073.09 1169.84 1074.68 1169.24 1089.49 1169.24C1103.18 1169.24 1106.35 1170.2 1112.94 1176.36C1121.5 1184.35 1126.97 1205.43 1120.51 1205.54C1118.61 1205.57 1102.89 1206.7 1085.58 1208.05C1036.53 1211.86 1018.79 1220.59 1010.73 1244.86C1003.83 1265.63 1009.24 1288.33 1024.45 1302.43C1046.39 1322.77 1097.57 1320.74 1117.05 1298.74L1122.23 1292.9L1123.52 1302.91L1124.82 1312.92L1147.47 1313.66L1170.12 1314.41V1251.3C1170.12 1183.14 1168.41 1171.2 1156.41 1155.47C1152.9 1150.87 1143.89 1143.76 1136.37 1139.67C1124.76 1133.35 1119.18 1132.1 1099.17 1131.33C1083.53 1130.73 1070.98 1131.73 1061.77 1134.32ZM1271.1 1136.15C1264.71 1139.4 1256.84 1146.02 1253.63 1150.86L1247.78 1159.65V1147.62V1135.59H1224.48H1201.19V1224.9V1314.21H1224.48H1247.78V1261.19C1247.78 1218.45 1248.59 1206.15 1251.96 1197.74C1258.03 1182.57 1268 1176.54 1289.57 1174.99L1307.52 1173.71L1306.78 1152.71L1306.03 1131.71L1294.38 1130.97C1286.24 1130.46 1279.23 1132.02 1271.1 1136.15ZM1379.63 1133.78C1336.51 1146.02 1311.79 1185.78 1316.04 1236.05C1318.92 1270.12 1335.39 1295.64 1363.09 1308.94C1382.37 1318.2 1418.31 1319.49 1439.22 1311.67C1460.77 1303.61 1478.29 1285.82 1484.5 1265.67C1486.27 1259.94 1485.93 1259.85 1464.04 1259.85C1446.77 1259.85 1441.45 1260.71 1440.31 1263.68C1437.69 1270.48 1421.64 1278.43 1410.15 1278.6C1386.16 1278.96 1371.78 1269.26 1365.54 1248.51L1361.94 1236.55H1425.6H1489.25L1487.95 1213.59C1485.01 1162.13 1458.81 1133.93 1411.66 1131.48C1399.64 1130.85 1386.67 1131.79 1379.63 1133.78ZM300.296 1225V1314.4L324.242 1313.66C337.411 1313.25 347.896 1312.04 347.541 1310.97C347.187 1309.9 346.894 1270.01 346.894 1222.31V1135.59H323.595H300.296V1225ZM1385 1173.78C1377.09 1177.73 1361.77 1198.66 1364.66 1201.55C1365.18 1202.07 1382.78 1202.87 1403.77 1203.34C1446.23 1204.29 1446.21 1204.3 1437.21 1187.52C1428.15 1170.64 1403.99 1164.28 1385 1173.78ZM627.857 1179.87C605.058 1199.89 606.143 1251.29 629.719 1268.08C633.998 1271.12 642.883 1274.12 649.463 1274.73C678.32 1277.41 699.069 1244.48 691.054 1208.71C685.188 1182.54 673.438 1171.86 650.517 1171.84C639.098 1171.83 635.603 1173.07 627.857 1179.87ZM1073.08 1240.45C1060.59 1244.9 1056.21 1250.35 1056.21 1261.45C1056.21 1275.13 1066.52 1281.42 1086.37 1279.86C1110.09 1277.99 1118.21 1270.42 1122.41 1246.26L1124.1 1236.55L1103.75 1236.66C1092.56 1236.72 1078.75 1238.43 1073.08 1240.45ZM1515.51 1267.32C1492.2 1281.54 1502.83 1316.8 1530.44 1316.8C1549.91 1316.8 1561.02 1306.03 1561.02 1287.18C1561.02 1280.49 1558.93 1276.66 1551.87 1270.47C1541.02 1260.94 1527.84 1259.8 1515.51 1267.32Z" fill="#193144"/>
</svg>
